<svg xmlns="http://www.w3.org/2000/svg" viewBox="0 0 1200 120" fill="none" stroke="currentColor" stroke-width="2" opacity="0.15">
  <path d="M0 60 Q25 20 50 60 Q75 100 100 60 Q125 20 150 60 Q175 100 200 60 Q225 20 250 60 Q275 100 300 60 Q325 20 350 60 Q375 100 400 60 Q425 20 450 60 Q475 100 500 60 Q525 20 550 60 Q575 100 600 60 Q625 20 650 60 Q675 100 700 60 Q725 20 750 60 Q775 100 800 60 Q825 20 850 60 Q875 100 900 60 Q925 20 950 60 Q975 100 1000 60 Q1025 20 1050 60 Q1075 100 1100 60 Q1125 20 1150 60 Q1175 100 1200 60"/>
</svg>
